<svg xmlns="http://www.w3.org/2000/svg" version="1.1" xmlns:xlink="http://www.w3.org/1999/xlink" xmlns:svgjs="http://svgjs.dev/svgjs" width="1500" height="193" viewBox="0 0 1500 193"><g transform="matrix(1,0,0,1,-0.9090909090909918,-0.26801772858058825)"><svg viewBox="0 0 396 51" data-background-color="#ffffff" preserveAspectRatio="xMidYMid meet" height="193" width="1500" xmlns="http://www.w3.org/2000/svg" xmlns:xlink="http://www.w3.org/1999/xlink"><g id="tight-bounds" transform="matrix(1,0,0,1,0.2400000000000091,0.07082333760419601)"><svg viewBox="0 0 395.52 50.85835332479163" height="50.85835332479163" width="395.52"><g><svg viewBox="0 0 412.72285152354567 53.07040000000001" height="50.85835332479163" width="395.52"><g><svg viewBox="0 0 412.72285152354567 53.07040000000001" height="53.07040000000001" width="412.72285152354567"><g id="textblocktransform"><svg viewBox="0 0 412.72285152354567 53.07040000000001" height="53.07040000000001" width="412.72285152354567" id="textblock"><g><svg viewBox="0 0 412.72285152354567 53.07040000000001" height="53.07040000000001" width="412.72285152354567"><g><svg><g></g><g></g></svg></g><g><svg><g><svg></svg></g><g></g></svg></g><g id="text-0"><svg viewBox="0 0 412.72285152354567 53.07040000000001" height="53.07040000000001" width="412.72285152354567"><g transform="matrix(1,0,0,1,0,0)"><svg width="352.56219999999996" viewBox="4.65 -32.35 217.88 32.800000000000004" height="53.07040000000001" data-palette-color="#755bb4"><path d="M14.45-32.1Q19.15-32.1 21.7-29.68 24.25-27.25 24.25-22.7L24.25-22.7Q24.25-17.35 21.08-14.3 17.9-11.25 12.3-11.25L12.3-11.25 8.5-11.25 8.5-10 8.7 0 4.65 0 4.9-9.65 4.65-32.05 14.45-32.1ZM13.8-14.5Q16.9-15 18.53-17 20.15-19 20.15-22.35L20.15-22.35Q20.15-28.55 13.55-28.8L13.55-28.8 8.7-28.65 8.55-14.6 13.8-14.5ZM43.7-12.95Q47-7.5 52-0.95L52-0.95 51.95-0.45Q50.15 0.25 48.25 0.45L48.25 0.45 47.7 0.1Q43.6-6.05 40.35-11.9L40.35-11.9 34.5-11.9 34.5-10 34.7 0 30.65 0 30.9-9.65 30.65-32.05 40.45-32.1Q45.15-32.1 47.72-29.73 50.3-27.35 50.3-22.95L50.3-22.95Q50.3-19.65 48.57-17.03 46.85-14.4 43.7-12.95L43.7-12.95ZM34.7-28.65L34.55-15.3 40.55-15.15Q46.15-16.75 46.15-22.6L46.15-22.6Q46.15-25.65 44.5-27.18 42.85-28.7 39.55-28.8L39.55-28.8 34.7-28.65ZM69.5-32.35Q76.09-32.35 79.62-28.3 83.15-24.25 83.15-16.65L83.15-16.65Q83.15-8.45 79.4-4.03 75.65 0.4 68.7 0.4L68.7 0.4Q62.2 0.4 58.67-3.8 55.15-8 55.15-15.75L55.15-15.75Q55.15-23.75 58.87-28.05 62.6-32.35 69.5-32.35L69.5-32.35ZM69.25-29.1Q59.25-29.1 59.25-16.2L59.25-16.2Q59.25-9.35 61.67-6.05 64.09-2.75 69-2.75L69-2.75Q79-2.75 79-15.9L79-15.9Q79-22.6 76.57-25.85 74.15-29.1 69.25-29.1L69.25-29.1ZM118.24-32.05L121.39 0 117.79 0 117.04-9.75 115.34-25.7 114.99-25.7 106.09-3.7 102.79-3.7 94.34-25.7 93.94-25.7 92.24-10.05 91.39 0 87.99 0 91.34-32.05 95.89-32.05 97.54-27.15 104.49-8.9 104.79-8.9 112.09-27.45 113.74-32.05 118.24-32.05ZM147.14-3.5L147.39-3.1 147.09 0 129.09 0 129.34-9.65 129.09-32.05 147.14-32.05 147.34-31.65 147.04-28.55 139.49-28.7 133.14-28.6 133.04-18.1 139.04-18 144.34-18.15 144.64-17.8 144.29-14.7 138.69-14.8 132.99-14.75 132.94-10 133.09-3.35 139.44-3.3 147.14-3.5ZM164.79-32.25Q171.64-32.25 175.29-28.35 178.94-24.45 178.94-17.15L178.94-17.15Q178.94-8.7 174.99-4.2 171.04 0.3 163.64 0.3L163.64 0.3Q161.59 0.3 158.66 0.23 155.74 0.15 153.24 0L153.24 0 153.19 0 153.44-9.65 153.19-32.05 153.24-32.05 164.79-32.25ZM164.29-3.05Q169.39-3.05 172.11-6.38 174.84-9.7 174.84-16.3L174.84-16.3Q174.84-28.9 164.49-28.9L164.49-28.9Q161.34-28.9 157.24-28.7L157.24-28.7 157.04-10 157.19-3.35Q158.74-3.2 160.91-3.13 163.09-3.05 164.29-3.05L164.29-3.05ZM189.59-32.05L189.34-10 189.54 0 185.49 0 185.74-9.65 185.49-32.05 189.59-32.05ZM221.73-32.05L211.58-16.7 222.53 0 217.68 0 216.33-2.6 208.88-13.55 201.23-2.35 199.98 0 195.68 0 206.58-16.2 196.08-32.05 200.93-32.05 202.28-29.5 209.18-19.25 216.08-29.55 217.38-32.05 221.73-32.05Z" opacity="1" transform="matrix(1,0,0,1,0,0)" fill="#755bb4" class="wordmark-text-0" data-fill-palette-color="primary"></path></svg></g><g><svg xmlns="http://www.w3.org/2000/svg" xmlns:xlink="http://www.w3.org/1999/xlink" version="1.1" x="365.0918" y="0" viewBox="17.5 13.9 64.8 72.19999999999999" style="enable-background:new 0 0 100 100;" xml:space="preserve" height="53.07040000000001" width="47.63105152354572" class="icon-dxe-0" data-fill-palette-color="accent" id="dxe-0"><g fill="#755bb4" data-fill-palette-color="accent"><path d="M82.3 36.3C82.3 31.5 78.4 27.5 73.5 27.5 71 27.5 68.7 28.6 67.1 30.3L58.3 25.2C58.5 24.4 58.7 23.5 58.7 22.7 58.7 17.9 54.8 13.9 49.9 13.9S41.1 17.8 41.1 22.7C41.1 23.6 41.2 24.4 41.5 25.2L32.7 30.3C31.1 28.6 28.8 27.5 26.3 27.5 21.5 27.5 17.5 31.4 17.5 36.3 17.5 40.4 20.4 43.9 24.3 44.8V55.2C20.4 56.1 17.5 59.6 17.5 63.7 17.5 68.5 21.4 72.5 26.3 72.5 28.8 72.5 31.1 71.4 32.7 69.7L41.5 74.8C41.3 75.6 41.1 76.5 41.1 77.3 41.1 82.1 45 86.1 49.9 86.1S58.7 82.2 58.7 77.3C58.7 76.4 58.6 75.6 58.3 74.8L67.1 69.7C68.7 71.4 71 72.5 73.5 72.5 78.3 72.5 82.3 68.6 82.3 63.7 82.3 59.6 79.4 56.1 75.5 55.2V44.8C79.5 43.9 82.3 40.4 82.3 36.3M50 18C52.6 18 54.8 20.1 54.8 22.8 54.8 25.4 52.7 27.6 50 27.6S45.2 25.5 45.2 22.8 47.4 18 50 18M21.7 36.3C21.7 33.7 23.8 31.5 26.5 31.5 29.1 31.5 31.3 33.6 31.3 36.3 31.3 38.9 29.2 41.1 26.5 41.1 23.8 41 21.7 38.9 21.7 36.3M26.4 68.5C23.8 68.5 21.6 66.4 21.6 63.7 21.6 61.1 23.7 58.9 26.4 58.9 29 58.9 31.2 61 31.2 63.7S29 68.5 26.4 68.5M50 82C47.4 82 45.2 79.9 45.2 77.2 45.2 74.6 47.3 72.4 50 72.4S54.8 74.5 54.8 77.2 52.6 82 50 82M64.8 63.7C64.8 64.5 64.9 65.4 65.2 66.1L56.4 71.2C54.8 69.5 52.5 68.4 50 68.4S45.2 69.5 43.6 71.2L34.8 66.1C35 65.3 35.2 64.5 35.2 63.7 35.2 59.6 32.3 56.1 28.4 55.2V44.8C32.3 43.9 35.2 40.4 35.2 36.3 35.2 35.5 35.1 34.6 34.8 33.9L43.6 28.8C45.2 30.5 47.5 31.6 50 31.6S54.8 30.5 56.4 28.8L65.2 33.9C65 34.7 64.8 35.5 64.8 36.3 64.8 40.4 67.7 43.9 71.6 44.8V55.2C67.7 56.1 64.8 59.6 64.8 63.7M78.3 63.7C78.3 66.3 76.2 68.5 73.5 68.5 70.9 68.5 68.7 66.4 68.7 63.7 68.7 61.1 70.8 58.9 73.5 58.9 76.2 59 78.3 61.1 78.3 63.7M73.6 41C71 41 68.8 38.9 68.8 36.2 68.8 33.6 70.9 31.4 73.6 31.4 76.2 31.4 78.4 33.5 78.4 36.2 78.3 38.9 76.2 41 73.6 41" fill="#755bb4" data-fill-palette-color="accent"></path></g></svg></g></svg></g></svg></g></svg></g></svg></g><g></g></svg></g><defs></defs></svg><rect width="395.52" height="50.85835332479163" fill="none" stroke="none" visibility="hidden"></rect></g></svg></g></svg>